<svg xmlns="http://www.w3.org/2000/svg" xmlns:v="https://svgstorm.com"
viewBox = "0 0 1600 900"
width="1600"
height="900">
<g fill="None" fill-opacity="0.0" stroke="#000000" stroke-opacity="0.00" stroke-width="0.3"><path d="
M 0.00 900.00 
L 1600.00 900.00
L 1600.00 0.00
L 0.00 0.00
L 0.00 900.00
M 665.00 511.00 
C 665.00 510.00 665.00 509.00 665.00 508.00
C 665.00 387.34 665.00 266.67 665.00 146.00
C 782.00 146.00 899.00 146.00 1016.00 146.00
C 1016.00 323.33 1016.00 500.67 1016.00 678.00
C 899.00 678.00 782.00 678.00 665.00 678.00
C 665.00 622.33 665.00 566.67 665.00 511.00 Z"/>
</g>
<g fill="None" fill-opacity="0.0" stroke="#F2F2F1" stroke-opacity="1.00" stroke-width="0.3"><path d="
M 665.00 508.00 
C 667.83 501.62 679.49 499.11 684.25 493.25 C 689.01 487.39 698.36 484.44 704.70 479.70 C 711.03 474.95 718.10 469.51 724.75 464.75 C 731.39 459.98 738.63 455.60 745.03 451.03 C 751.44 446.46 758.64 441.96 765.08 437.08 C 771.52 432.20 778.46 426.72 785.25 422.25 C 792.03 417.77 798.37 412.66 805.25 408.25 C 812.12 403.83 818.33 397.00 826.00 394.00
C 826.43 393.83 827.00 394.00 827.00 394.00
C 872.80 341.60 912.29 283.59 959.00 232.00
C 958.48 234.80 957.36 237.45 956.00 240.00
C 938.21 281.70 917.92 322.38 900.00 364.00
C 913.17 367.50 926.77 369.22 940.00 365.00
C 943.44 364.07 946.96 362.64 951.00 362.00
C 968.35 359.24 987.32 348.54 1005.00 349.00
C 1006.96 348.43 1009.29 346.07 1012.00 347.00
C 1011.56 348.29 1010.42 349.21 1009.00 349.00
C 992.17 365.21 969.70 374.88 951.30 389.30 C 932.90 403.73 910.63 414.80 892.25 429.25 C 873.86 443.69 849.44 452.40 833.00 469.00
C 830.09 471.94 826.88 475.12 824.00 478.00
C 787.05 521.24 747.97 562.73 711.00 606.00
C 703.98 614.22 697.50 623.08 689.00 630.00
C 691.20 623.03 692.89 613.05 699.00 609.00
C 708.15 587.81 719.48 567.58 730.00 547.00
C 734.69 533.56 743.35 519.08 749.00 505.00
C 748.00 504.89 746.27 505.47 746.00 504.00
C 737.94 502.91 730.91 493.08 722.32 497.32 C 713.73 501.56 703.94 501.12 695.00 504.00 C 686.05 506.88 675.73 506.57 667.00 510.00
C 667.43 509.83 664.68 511.53 665.00 511.00
C 665.00 566.67 665.00 622.33 665.00 678.00
C 782.00 678.00 899.00 678.00 1016.00 678.00
C 1016.00 500.67 1016.00 323.33 1016.00 146.00
C 899.00 146.00 782.00 146.00 665.00 146.00
C 665.00 266.67 665.00 387.34 665.00 508.00
M 747.00 190.00 
C 747.27 190.61 747.67 191.46 748.00 192.00
C 752.73 197.07 759.60 201.32 762.00 208.00
C 762.16 208.44 762.00 209.00 762.00 209.00
C 773.98 217.38 781.83 232.46 791.75 243.25 C 801.67 254.03 810.07 267.90 819.77 279.23 C 829.47 290.56 840.18 302.38 848.00 315.00
C 848.22 315.36 848.00 316.00 848.00 316.00
C 849.01 321.42 851.05 326.50 852.00 332.00
C 853.75 338.02 857.33 343.21 854.00 349.00
C 848.58 358.43 840.25 366.43 834.00 375.00
C 829.09 381.73 824.54 390.93 816.00 394.00
C 816.45 391.69 813.47 390.93 813.00 389.00
C 801.45 374.25 796.76 354.06 786.08 336.92 C 775.39 319.79 768.09 300.58 759.01 281.99 C 749.93 263.41 746.12 240.47 738.02 220.98 C 729.92 201.48 726.91 177.60 719.00 158.00
C 718.74 157.75 718.20 157.31 718.00 157.00
C 717.49 156.19 716.51 155.39 717.00 154.00
C 728.09 163.94 738.05 177.81 747.00 190.00
M 778.00 357.00 
C 778.20 357.40 778.00 358.00 778.00 358.00
C 781.04 364.21 787.93 368.24 792.25 373.75 C 796.56 379.26 801.63 385.52 806.00 391.00
C 807.69 393.12 810.03 395.28 811.00 398.00
C 806.67 400.16 803.35 404.27 799.00 406.00
C 796.73 407.60 792.44 413.50 790.00 412.00
C 787.77 410.63 786.63 404.48 786.00 402.00
C 785.94 401.76 785.11 401.35 785.00 401.00
C 781.41 396.70 781.55 392.29 781.00 388.00
C 777.98 379.81 775.51 371.37 773.00 363.00
C 771.16 358.79 765.33 352.73 767.00 346.00
C 772.11 347.50 774.24 353.55 778.00 357.00
M 889.00 449.00 
C 890.56 452.15 891.99 454.20 893.00 458.00
C 895.83 468.61 900.28 478.67 904.00 489.00
C 906.28 493.32 911.09 500.17 911.77 505.23 C 912.45 510.29 920.12 519.14 918.00 524.00
C 917.14 525.97 914.62 521.66 914.00 521.00
C 898.40 504.28 881.06 487.63 866.00 470.00
C 862.75 466.75 858.48 463.93 856.00 460.00
C 862.10 456.41 867.86 452.47 874.00 449.00
C 876.75 447.09 881.45 442.41 885.00 442.00
C 887.85 441.67 888.10 446.20 889.00 449.00
M 857.00 471.00 
C 880.19 494.18 885.36 524.93 896.98 555.02 C 908.59 585.11 908.03 626.15 919.00 657.00
C 920.25 660.50 921.83 664.63 921.00 669.00
C 917.94 667.69 913.25 663.05 914.00 660.00
C 898.34 638.73 883.41 617.08 868.74 595.26 C 854.08 573.43 836.97 552.45 823.00 530.00
C 819.82 525.55 819.30 523.68 819.00 519.00
C 816.90 509.81 813.12 499.66 819.25 492.25 C 825.37 484.84 829.43 480.70 836.00 474.00
C 839.36 470.57 842.34 469.21 846.75 465.75 C 851.16 462.29 853.94 467.94 857.00 471.00 Z"/>
</g>
<g fill="None" fill-opacity="0.0" stroke="#B3DBE6" stroke-opacity="1.00" stroke-width="0.3"><path d="
M 718.00 157.00 
C 718.41 156.16 725.48 163.94 727.30 166.70 C 729.13 169.45 733.96 175.02 736.75 178.25 C 739.55 181.47 744.04 186.83 747.00 190.00
C 738.05 177.81 728.09 163.94 717.00 154.00
C 716.51 155.39 717.49 156.19 718.00 157.00 Z"/>
</g>
<g fill="None" fill-opacity="0.0" stroke="#1D92CC" stroke-opacity="1.00" stroke-width="0.3"><path d="
M 718.00 157.00 
C 718.20 157.31 718.74 157.75 719.00 158.00
C 729.68 168.23 732.51 186.50 741.30 198.70 C 750.10 210.89 755.91 226.16 763.75 239.25 C 771.60 252.33 778.19 266.85 785.77 280.23 C 793.35 293.61 800.31 307.61 807.77 321.23 C 815.24 334.85 822.94 349.12 831.00 362.00
C 838.72 346.99 838.54 329.47 845.00 314.00
C 846.25 314.30 846.71 315.83 848.00 316.00
C 848.00 316.00 848.22 315.36 848.00 315.00
C 835.97 306.59 829.39 290.65 818.75 280.25 C 808.11 269.85 800.58 255.41 790.74 244.26 C 780.90 233.10 771.00 220.84 762.00 209.00
C 762.00 209.00 762.16 208.44 762.00 208.00
C 756.93 204.46 751.20 197.26 748.00 192.00
C 747.67 191.46 747.27 190.61 747.00 190.00
C 744.04 186.83 739.55 181.47 736.75 178.25 C 733.96 175.02 729.13 169.45 727.30 166.70 C 725.48 163.94 718.41 156.16 718.00 157.00 Z"/>
</g>
<g fill="None" fill-opacity="0.0" stroke="#155995" stroke-opacity="1.00" stroke-width="0.3"><path d="
M 813.00 389.00 
C 812.41 387.90 811.39 387.17 811.00 386.00
C 820.12 381.24 825.27 372.63 831.00 365.00
C 831.24 368.56 834.09 371.33 834.00 375.00
C 840.25 366.43 848.58 358.43 854.00 349.00
C 856.05 343.55 852.96 337.56 852.00 332.00
C 851.05 326.50 849.01 321.42 848.00 316.00
C 846.71 315.83 846.25 314.30 845.00 314.00
C 838.54 329.47 838.72 346.99 831.00 362.00
C 822.94 349.12 815.24 334.85 807.77 321.23 C 800.31 307.61 793.35 293.61 785.77 280.23 C 778.19 266.85 771.60 252.33 763.75 239.25 C 755.91 226.16 750.10 210.89 741.30 198.70 C 732.51 186.50 729.68 168.23 719.00 158.00
C 726.91 177.60 729.92 201.48 738.02 220.98 C 746.12 240.47 749.93 263.41 759.01 281.99 C 768.09 300.58 775.39 319.79 786.08 336.92 C 796.76 354.06 801.45 374.25 813.00 389.00 Z"/>
</g>
<g fill="None" fill-opacity="0.0" stroke="#B5DDEA" stroke-opacity="1.00" stroke-width="0.3"><path d="
M 762.00 208.00 
C 759.60 201.32 752.73 197.07 748.00 192.00
C 751.20 197.26 756.93 204.46 762.00 208.00 Z"/>
</g>
<g fill="None" fill-opacity="0.0" stroke="#B2DBE9" stroke-opacity="1.00" stroke-width="0.3"><path d="
M 848.00 315.00 
C 840.18 302.38 829.47 290.56 819.77 279.23 C 810.07 267.90 801.67 254.03 791.75 243.25 C 781.83 232.46 773.98 217.38 762.00 209.00
C 771.00 220.84 780.90 233.10 790.74 244.26 C 800.58 255.41 808.11 269.85 818.75 280.25 C 829.39 290.65 835.97 306.59 848.00 315.00 Z"/>
</g>
<g fill="None" fill-opacity="0.0" stroke="#E0282D" stroke-opacity="1.00" stroke-width="0.3"><path d="
M 827.00 394.00 
C 838.09 392.19 854.01 386.11 864.00 381.00
C 875.63 375.05 879.38 357.03 887.78 346.78 C 896.18 336.52 902.43 322.22 909.92 310.92 C 917.41 299.61 925.36 287.19 932.25 275.25 C 939.15 263.32 948.09 250.33 956.00 240.00
C 957.36 237.45 958.48 234.80 959.00 232.00
C 912.29 283.59 872.80 341.60 827.00 394.00 Z"/>
</g>
<g fill="None" fill-opacity="0.0" stroke="#E74D24" stroke-opacity="1.00" stroke-width="0.3"><path d="
M 864.00 381.00 
C 865.01 380.82 865.76 379.52 867.00 380.00
C 858.78 394.12 850.31 407.95 842.00 422.00
C 840.95 423.70 839.66 425.10 839.00 427.00
C 846.69 425.92 852.57 419.99 860.00 418.00
C 884.45 407.45 908.03 393.93 932.70 383.70 C 957.36 373.46 980.59 358.10 1006.00 350.00
C 1005.74 349.88 1005.34 349.01 1005.00 349.00
C 987.32 348.54 968.35 359.24 951.00 362.00
C 947.60 362.92 943.89 364.44 940.00 365.00
C 926.77 369.22 913.17 367.50 900.00 364.00
C 917.92 322.38 938.21 281.70 956.00 240.00
C 948.09 250.33 939.15 263.32 932.25 275.25 C 925.36 287.19 917.41 299.61 909.92 310.92 C 902.43 322.22 896.18 336.52 887.78 346.78 C 879.38 357.03 875.63 375.05 864.00 381.00 Z"/>
</g>
<g fill="None" fill-opacity="0.0" stroke="#8CACC3" stroke-opacity="1.00" stroke-width="0.3"><path d="
M 854.00 349.00 
C 857.33 343.21 853.75 338.02 852.00 332.00
C 852.96 337.56 856.05 343.55 854.00 349.00 Z"/>
</g>
<g fill="None" fill-opacity="0.0" stroke="#CDEAD4" stroke-opacity="1.00" stroke-width="0.3"><path d="
M 773.00 363.00 
C 771.48 357.94 768.87 353.23 768.00 348.00
C 771.80 350.38 774.24 354.68 778.00 357.00
C 774.24 353.55 772.11 347.50 767.00 346.00
C 765.33 352.73 771.16 358.79 773.00 363.00 Z"/>
</g>
<g fill="None" fill-opacity="0.0" stroke="#DBA471" stroke-opacity="1.00" stroke-width="0.3"><path d="
M 1005.00 349.00 
C 1005.34 349.01 1005.74 349.88 1006.00 350.00
C 1007.06 349.66 1007.93 349.47 1009.00 349.00
C 1010.42 349.21 1011.56 348.29 1012.00 347.00
C 1009.29 346.07 1006.96 348.43 1005.00 349.00 Z"/>
</g>
<g fill="None" fill-opacity="0.0" stroke="#2EA44B" stroke-opacity="1.00" stroke-width="0.3"><path d="
M 773.00 363.00 
C 775.51 371.37 777.98 379.81 781.00 388.00
C 782.66 392.50 784.74 397.07 786.00 402.00
C 786.63 404.48 787.77 410.63 790.00 412.00
C 789.21 409.43 795.91 404.79 797.00 403.00
C 796.86 402.55 797.20 401.40 797.00 401.00
C 789.15 384.99 778.45 369.66 772.00 353.00
C 774.41 354.11 775.62 356.96 778.00 358.00
C 778.00 358.00 778.20 357.40 778.00 357.00
C 774.24 354.68 771.80 350.38 768.00 348.00
C 768.87 353.23 771.48 357.94 773.00 363.00 Z"/>
</g>
<g fill="None" fill-opacity="0.0" stroke="#F6AE16" stroke-opacity="1.00" stroke-width="0.3"><path d="
M 1006.00 350.00 
C 980.59 358.10 957.36 373.46 932.70 383.70 C 908.03 393.93 884.45 407.45 860.00 418.00
C 852.08 424.70 848.20 446.69 835.00 441.00
C 834.46 435.20 836.27 426.58 842.00 422.00
C 850.31 407.95 858.78 394.12 867.00 380.00
C 865.76 379.52 865.01 380.82 864.00 381.00
C 854.01 386.11 838.09 392.19 827.00 394.00
C 827.00 394.00 826.43 393.83 826.00 394.00
C 817.28 407.38 797.92 412.68 786.30 423.30 C 774.69 433.93 758.47 442.23 746.30 452.30 C 734.14 462.37 717.49 470.64 705.92 480.92 C 694.35 491.20 673.68 497.86 667.00 510.00
C 717.37 485.00 768.94 460.59 820.00 437.00
C 811.69 452.35 799.63 465.62 791.00 481.00
C 804.73 478.37 817.37 471.94 831.00 469.00
C 831.49 468.94 832.58 469.18 833.00 469.00
C 849.44 452.40 873.86 443.69 892.25 429.25 C 910.63 414.80 932.90 403.73 951.30 389.30 C 969.70 374.88 992.17 365.21 1009.00 349.00
C 1007.93 349.47 1007.06 349.66 1006.00 350.00 Z"/>
</g>
<g fill="None" fill-opacity="0.0" stroke="#1D773A" stroke-opacity="1.00" stroke-width="0.3"><path d="
M 797.00 401.00 
C 799.17 397.45 803.76 394.74 806.00 391.00
C 801.63 385.52 796.56 379.26 792.25 373.75 C 787.93 368.24 781.04 364.21 778.00 358.00
C 775.62 356.96 774.41 354.11 772.00 353.00
C 778.45 369.66 789.15 384.99 797.00 401.00 Z"/>
</g>
<g fill="None" fill-opacity="0.0" stroke="#E39E86" stroke-opacity="1.00" stroke-width="0.3"><path d="
M 940.00 365.00 
C 943.89 364.44 947.60 362.92 951.00 362.00
C 946.96 362.64 943.44 364.07 940.00 365.00 Z"/>
</g>
<g fill="None" fill-opacity="0.0" stroke="#0C2C52" stroke-opacity="1.00" stroke-width="0.3"><path d="
M 813.00 389.00 
C 813.47 390.93 816.45 391.69 816.00 394.00
C 824.54 390.93 829.09 381.73 834.00 375.00
C 834.09 371.33 831.24 368.56 831.00 365.00
C 825.27 372.63 820.12 381.24 811.00 386.00
C 811.39 387.17 812.41 387.90 813.00 389.00 Z"/>
</g>
<g fill="None" fill-opacity="0.0" stroke="#D7ECD9" stroke-opacity="1.00" stroke-width="0.3"><path d="
M 785.00 401.00 
C 783.65 396.68 781.63 392.56 781.00 388.00
C 781.55 392.29 781.41 396.70 785.00 401.00 Z"/>
</g>
<g fill="None" fill-opacity="0.0" stroke="#81C78F" stroke-opacity="1.00" stroke-width="0.3"><path d="
M 785.00 401.00 
C 785.11 401.35 785.94 401.76 786.00 402.00
C 784.74 397.07 782.66 392.50 781.00 388.00
C 781.63 392.56 783.65 396.68 785.00 401.00 Z"/>
</g>
<g fill="None" fill-opacity="0.0" stroke="#134523" stroke-opacity="1.00" stroke-width="0.3"><path d="
M 797.00 401.00 
C 797.20 401.40 796.86 402.55 797.00 403.00
C 797.25 403.80 799.01 404.80 799.00 406.00
C 803.35 404.27 806.67 400.16 811.00 398.00
C 810.03 395.28 807.69 393.12 806.00 391.00
C 803.76 394.74 799.17 397.45 797.00 401.00 Z"/>
</g>
<g fill="None" fill-opacity="0.0" stroke="#F7E9BB" stroke-opacity="1.00" stroke-width="0.3"><path d="
M 665.00 508.00 
C 665.00 509.00 665.00 510.00 665.00 511.00
C 664.68 511.53 667.43 509.83 667.00 510.00
C 673.68 497.86 694.35 491.20 705.92 480.92 C 717.49 470.64 734.14 462.37 746.30 452.30 C 758.47 442.23 774.69 433.93 786.30 423.30 C 797.92 412.68 817.28 407.38 826.00 394.00
C 818.33 397.00 812.12 403.83 805.25 408.25 C 798.37 412.66 792.03 417.77 785.25 422.25 C 778.46 426.72 771.52 432.20 765.08 437.08 C 758.64 441.96 751.44 446.46 745.03 451.03 C 738.63 455.60 731.39 459.98 724.75 464.75 C 718.10 469.51 711.03 474.95 704.70 479.70 C 698.36 484.44 689.01 487.39 684.25 493.25 C 679.49 499.11 667.83 501.62 665.00 508.00 Z"/>
</g>
<g fill="None" fill-opacity="0.0" stroke="#1F6835" stroke-opacity="1.00" stroke-width="0.3"><path d="
M 790.00 412.00 
C 792.44 413.50 796.73 407.60 799.00 406.00
C 799.01 404.80 797.25 403.80 797.00 403.00
C 795.91 404.79 789.21 409.43 790.00 412.00 Z"/>
</g>
<g fill="None" fill-opacity="0.0" stroke="#F19013" stroke-opacity="1.00" stroke-width="0.3"><path d="
M 842.00 422.00 
C 836.27 426.58 834.46 435.20 835.00 441.00
C 848.20 446.69 852.08 424.70 860.00 418.00
C 852.57 419.99 846.69 425.92 839.00 427.00
C 839.66 425.10 840.95 423.70 842.00 422.00 Z"/>
</g>
<g fill="None" fill-opacity="0.0" stroke="#E94E26" stroke-opacity="1.00" stroke-width="0.3"><path d="
M 667.00 510.00 
C 675.73 506.57 686.05 506.88 695.00 504.00 C 703.94 501.12 713.73 501.56 722.32 497.32 C 730.91 493.08 737.94 502.91 746.00 504.00
C 746.86 504.12 751.16 503.93 751.00 504.00
C 757.92 491.98 778.60 487.11 790.00 482.00
C 757.74 530.39 724.37 578.81 691.00 626.00
C 690.50 628.87 697.19 621.17 699.75 617.75 C 702.32 614.33 707.79 609.21 711.00 606.00
C 747.97 562.73 787.05 521.24 824.00 478.00
C 826.29 475.32 828.65 471.22 831.00 469.00
C 817.37 471.94 804.73 478.37 791.00 481.00
C 799.63 465.62 811.69 452.35 820.00 437.00
C 768.94 460.59 717.37 485.00 667.00 510.00 Z"/>
</g>
<g fill="None" fill-opacity="0.0" stroke="#2591C8" stroke-opacity="1.00" stroke-width="0.3"><path d="
M 885.00 442.00 
C 889.83 444.25 875.84 452.89 879.78 457.22 C 883.72 461.56 884.54 468.96 888.31 473.70 C 892.07 478.43 894.14 484.87 896.93 490.07 C 899.71 495.27 903.67 500.32 906.75 505.25 C 909.83 510.17 912.04 517.07 914.00 521.00
C 914.62 521.66 917.14 525.97 918.00 524.00
C 912.97 512.93 908.24 500.78 904.00 489.00
C 900.28 478.67 895.83 468.61 893.00 458.00
C 891.86 455.19 890.01 452.14 889.00 449.00
C 888.10 446.20 887.85 441.67 885.00 442.00 Z"/>
</g>
<g fill="None" fill-opacity="0.0" stroke="#155790" stroke-opacity="1.00" stroke-width="0.3"><path d="
M 874.00 449.00 
C 874.73 450.34 875.34 451.64 876.00 453.00
C 871.24 456.97 866.72 461.07 862.00 465.00
C 862.81 467.04 865.27 467.97 866.00 470.00
C 881.06 487.63 898.40 504.28 914.00 521.00
C 912.04 517.07 909.83 510.17 906.75 505.25 C 903.67 500.32 899.71 495.27 896.93 490.07 C 894.14 484.87 892.07 478.43 888.31 473.70 C 884.54 468.96 883.72 461.56 879.78 457.22 C 875.84 452.89 889.83 444.25 885.00 442.00
C 881.45 442.41 876.75 447.09 874.00 449.00 Z"/>
</g>
<g fill="None" fill-opacity="0.0" stroke="#153357" stroke-opacity="1.00" stroke-width="0.3"><path d="
M 866.00 470.00 
C 865.27 467.97 862.81 467.04 862.00 465.00
C 866.72 461.07 871.24 456.97 876.00 453.00
C 875.34 451.64 874.73 450.34 874.00 449.00
C 867.86 452.47 862.10 456.41 856.00 460.00
C 858.48 463.93 862.75 466.75 866.00 470.00 Z"/>
</g>
<g fill="None" fill-opacity="0.0" stroke="#AEDBEA" stroke-opacity="1.00" stroke-width="0.3"><path d="
M 893.00 458.00 
C 891.99 454.20 890.56 452.15 889.00 449.00
C 890.01 452.14 891.86 455.19 893.00 458.00 Z"/>
</g>
<g fill="None" fill-opacity="0.0" stroke="#0E3C1F" stroke-opacity="1.00" stroke-width="0.3"><path d="
M 836.00 474.00 
C 835.58 476.87 839.29 479.09 839.00 482.00
C 844.56 477.96 851.15 474.44 857.00 471.00
C 853.94 467.94 851.16 462.29 846.75 465.75 C 842.34 469.21 839.36 470.57 836.00 474.00 Z"/>
</g>
<g fill="None" fill-opacity="0.0" stroke="#F7D7C5" stroke-opacity="1.00" stroke-width="0.3"><path d="
M 824.00 478.00 
C 826.88 475.12 830.09 471.94 833.00 469.00
C 832.58 469.18 831.49 468.94 831.00 469.00
C 828.65 471.22 826.29 475.32 824.00 478.00 Z"/>
</g>
<g fill="None" fill-opacity="0.0" stroke="#1A7A37" stroke-opacity="1.00" stroke-width="0.3"><path d="
M 836.00 474.00 
C 829.43 480.70 825.37 484.84 819.25 492.25 C 813.12 499.66 816.90 509.81 819.00 519.00
C 819.85 522.71 820.66 526.08 823.00 529.00
C 830.34 515.53 829.31 497.00 839.00 484.00
C 867.48 543.42 893.04 604.98 919.00 666.00
C 920.30 666.26 919.49 659.59 919.00 657.00
C 908.03 626.15 908.59 585.11 896.98 555.02 C 885.36 524.93 880.19 494.18 857.00 471.00
C 851.15 474.44 844.56 477.96 839.00 482.00
C 839.29 479.09 835.58 476.87 836.00 474.00 Z"/>
</g>
<g fill="None" fill-opacity="0.0" stroke="#E3252A" stroke-opacity="1.00" stroke-width="0.3"><path d="
M 751.00 504.00 
C 743.19 517.57 737.20 532.92 730.00 547.00
C 719.48 567.58 708.15 587.81 699.00 609.00
C 696.62 614.52 692.04 620.08 691.00 626.00
C 724.37 578.81 757.74 530.39 790.00 482.00
C 778.60 487.11 757.92 491.98 751.00 504.00 Z"/>
</g>
<g fill="None" fill-opacity="0.0" stroke="#29A946" stroke-opacity="1.00" stroke-width="0.3"><path d="
M 823.00 529.00 
C 823.24 529.30 823.00 530.00 823.00 530.00
C 836.97 552.45 854.08 573.43 868.74 595.26 C 883.41 617.08 898.34 638.73 914.00 660.00
C 914.99 661.34 917.22 665.64 919.00 666.00
C 893.04 604.98 867.48 543.42 839.00 484.00
C 829.31 497.00 830.34 515.53 823.00 529.00 Z"/>
</g>
<g fill="None" fill-opacity="0.0" stroke="#AED7E6" stroke-opacity="1.00" stroke-width="0.3"><path d="
M 918.00 524.00 
C 920.12 519.14 912.45 510.29 911.77 505.23 C 911.09 500.17 906.28 493.32 904.00 489.00
C 908.24 500.78 912.97 512.93 918.00 524.00 Z"/>
</g>
<g fill="None" fill-opacity="0.0" stroke="#F2C7C4" stroke-opacity="1.00" stroke-width="0.3"><path d="
M 746.00 504.00 
C 746.27 505.47 748.00 504.89 749.00 505.00
C 743.35 519.08 734.69 533.56 730.00 547.00
C 737.20 532.92 743.19 517.57 751.00 504.00
C 751.16 503.93 746.86 504.12 746.00 504.00 Z"/>
</g>
<g fill="None" fill-opacity="0.0" stroke="#CEEAD7" stroke-opacity="1.00" stroke-width="0.3"><path d="
M 823.00 530.00 
C 823.00 530.00 823.24 529.30 823.00 529.00
C 820.66 526.08 819.85 522.71 819.00 519.00
C 819.30 523.68 819.82 525.55 823.00 530.00 Z"/>
</g>
<g fill="None" fill-opacity="0.0" stroke="#EEBFB7" stroke-opacity="1.00" stroke-width="0.3"><path d="
M 691.00 626.00 
C 692.04 620.08 696.62 614.52 699.00 609.00
C 692.89 613.05 691.20 623.03 689.00 630.00
C 697.50 623.08 703.98 614.22 711.00 606.00
C 707.79 609.21 702.32 614.33 699.75 617.75 C 697.19 621.17 690.50 628.87 691.00 626.00 Z"/>
</g>
<g fill="None" fill-opacity="0.0" stroke="#CBE6D0" stroke-opacity="1.00" stroke-width="0.3"><path d="
M 919.00 666.00 
C 917.22 665.64 914.99 661.34 914.00 660.00
C 913.25 663.05 917.94 667.69 921.00 669.00
C 921.83 664.63 920.25 660.50 919.00 657.00
C 919.49 659.59 920.30 666.26 919.00 666.00 Z"/>
</g>
<g fill="#000000" fill-opacity="0.00" stroke="None">
<path d="
M 0.00 900.00 
L 1600.00 900.00
L 1600.00 0.00
L 0.00 0.00
L 0.00 900.00
M 665.00 511.00 
C 665.00 510.00 665.00 509.00 665.00 508.00
C 665.00 387.34 665.00 266.67 665.00 146.00
C 782.00 146.00 899.00 146.00 1016.00 146.00
C 1016.00 323.33 1016.00 500.67 1016.00 678.00
C 899.00 678.00 782.00 678.00 665.00 678.00
C 665.00 622.33 665.00 566.67 665.00 511.00 Z"/>
</g>
<g fill="#F2F2F1" fill-opacity="1.00" stroke="None">
<path d="
M 665.00 508.00 
C 667.83 501.62 679.49 499.11 684.25 493.25 C 689.01 487.39 698.36 484.44 704.70 479.70 C 711.03 474.95 718.10 469.51 724.75 464.75 C 731.39 459.98 738.63 455.60 745.03 451.03 C 751.44 446.46 758.64 441.96 765.08 437.08 C 771.52 432.20 778.46 426.72 785.25 422.25 C 792.03 417.77 798.37 412.66 805.25 408.25 C 812.12 403.83 818.33 397.00 826.00 394.00
C 826.43 393.83 827.00 394.00 827.00 394.00
C 872.80 341.60 912.29 283.59 959.00 232.00
C 958.48 234.80 957.36 237.45 956.00 240.00
C 938.21 281.70 917.92 322.38 900.00 364.00
C 913.17 367.50 926.77 369.22 940.00 365.00
C 943.44 364.07 946.96 362.64 951.00 362.00
C 968.35 359.24 987.32 348.54 1005.00 349.00
C 1006.96 348.43 1009.29 346.07 1012.00 347.00
C 1011.56 348.29 1010.42 349.21 1009.00 349.00
C 992.17 365.21 969.70 374.88 951.30 389.30 C 932.90 403.73 910.63 414.80 892.25 429.25 C 873.86 443.69 849.44 452.40 833.00 469.00
C 830.09 471.94 826.88 475.12 824.00 478.00
C 787.05 521.24 747.97 562.73 711.00 606.00
C 703.98 614.22 697.50 623.08 689.00 630.00
C 691.20 623.03 692.89 613.05 699.00 609.00
C 708.15 587.81 719.48 567.58 730.00 547.00
C 734.69 533.56 743.35 519.08 749.00 505.00
C 748.00 504.89 746.27 505.47 746.00 504.00
C 737.94 502.91 730.91 493.08 722.32 497.32 C 713.73 501.56 703.94 501.12 695.00 504.00 C 686.05 506.88 675.73 506.57 667.00 510.00
C 667.43 509.83 664.68 511.53 665.00 511.00
C 665.00 566.67 665.00 622.33 665.00 678.00
C 782.00 678.00 899.00 678.00 1016.00 678.00
C 1016.00 500.67 1016.00 323.33 1016.00 146.00
C 899.00 146.00 782.00 146.00 665.00 146.00
C 665.00 266.67 665.00 387.34 665.00 508.00
M 747.00 190.00 
C 747.27 190.61 747.67 191.46 748.00 192.00
C 752.73 197.07 759.60 201.32 762.00 208.00
C 762.16 208.44 762.00 209.00 762.00 209.00
C 773.98 217.38 781.83 232.46 791.75 243.25 C 801.67 254.03 810.07 267.90 819.77 279.23 C 829.47 290.56 840.18 302.38 848.00 315.00
C 848.22 315.36 848.00 316.00 848.00 316.00
C 849.01 321.42 851.05 326.50 852.00 332.00
C 853.75 338.02 857.33 343.21 854.00 349.00
C 848.58 358.43 840.25 366.43 834.00 375.00
C 829.09 381.73 824.54 390.93 816.00 394.00
C 816.45 391.69 813.47 390.93 813.00 389.00
C 801.45 374.25 796.76 354.06 786.08 336.92 C 775.39 319.79 768.09 300.58 759.01 281.99 C 749.93 263.41 746.12 240.47 738.02 220.98 C 729.92 201.48 726.91 177.60 719.00 158.00
C 718.74 157.75 718.20 157.31 718.00 157.00
C 717.49 156.19 716.51 155.39 717.00 154.00
C 728.09 163.94 738.05 177.81 747.00 190.00
M 778.00 357.00 
C 778.20 357.40 778.00 358.00 778.00 358.00
C 781.04 364.21 787.93 368.24 792.25 373.75 C 796.56 379.26 801.63 385.52 806.00 391.00
C 807.69 393.12 810.03 395.28 811.00 398.00
C 806.67 400.16 803.35 404.27 799.00 406.00
C 796.73 407.60 792.44 413.50 790.00 412.00
C 787.77 410.63 786.63 404.48 786.00 402.00
C 785.94 401.76 785.11 401.35 785.00 401.00
C 781.41 396.70 781.55 392.29 781.00 388.00
C 777.98 379.81 775.51 371.37 773.00 363.00
C 771.16 358.79 765.33 352.73 767.00 346.00
C 772.11 347.50 774.24 353.55 778.00 357.00
M 889.00 449.00 
C 890.56 452.15 891.99 454.20 893.00 458.00
C 895.83 468.61 900.28 478.67 904.00 489.00
C 906.28 493.32 911.09 500.17 911.77 505.23 C 912.45 510.29 920.12 519.14 918.00 524.00
C 917.14 525.97 914.62 521.66 914.00 521.00
C 898.40 504.28 881.06 487.63 866.00 470.00
C 862.75 466.75 858.48 463.93 856.00 460.00
C 862.10 456.41 867.86 452.47 874.00 449.00
C 876.75 447.09 881.45 442.41 885.00 442.00
C 887.85 441.67 888.10 446.20 889.00 449.00
M 857.00 471.00 
C 880.19 494.18 885.36 524.93 896.98 555.02 C 908.59 585.11 908.03 626.15 919.00 657.00
C 920.25 660.50 921.83 664.63 921.00 669.00
C 917.94 667.69 913.25 663.05 914.00 660.00
C 898.34 638.73 883.41 617.08 868.74 595.26 C 854.08 573.43 836.97 552.45 823.00 530.00
C 819.82 525.55 819.30 523.68 819.00 519.00
C 816.90 509.81 813.12 499.66 819.25 492.25 C 825.37 484.84 829.43 480.70 836.00 474.00
C 839.36 470.57 842.34 469.21 846.75 465.75 C 851.16 462.29 853.94 467.94 857.00 471.00 Z"/>
</g>
<g fill="#B3DBE6" fill-opacity="1.00" stroke="None">
<path d="
M 718.00 157.00 
C 718.41 156.16 725.48 163.94 727.30 166.70 C 729.13 169.45 733.96 175.02 736.75 178.25 C 739.55 181.47 744.04 186.83 747.00 190.00
C 738.05 177.81 728.09 163.94 717.00 154.00
C 716.51 155.39 717.49 156.19 718.00 157.00 Z"/>
</g>
<g fill="#1D92CC" fill-opacity="1.00" stroke="None">
<path d="
M 718.00 157.00 
C 718.20 157.31 718.74 157.75 719.00 158.00
C 729.68 168.23 732.51 186.50 741.30 198.70 C 750.10 210.89 755.91 226.16 763.75 239.25 C 771.60 252.33 778.19 266.85 785.77 280.23 C 793.35 293.61 800.31 307.61 807.77 321.23 C 815.24 334.85 822.94 349.12 831.00 362.00
C 838.72 346.99 838.54 329.47 845.00 314.00
C 846.25 314.30 846.71 315.83 848.00 316.00
C 848.00 316.00 848.22 315.36 848.00 315.00
C 835.97 306.59 829.39 290.65 818.75 280.25 C 808.11 269.85 800.58 255.41 790.74 244.26 C 780.90 233.10 771.00 220.84 762.00 209.00
C 762.00 209.00 762.16 208.44 762.00 208.00
C 756.93 204.46 751.20 197.26 748.00 192.00
C 747.67 191.46 747.27 190.61 747.00 190.00
C 744.04 186.83 739.55 181.47 736.75 178.25 C 733.96 175.02 729.13 169.45 727.30 166.70 C 725.48 163.94 718.41 156.16 718.00 157.00 Z"/>
</g>
<g fill="#155995" fill-opacity="1.00" stroke="None">
<path d="
M 813.00 389.00 
C 812.41 387.90 811.39 387.17 811.00 386.00
C 820.12 381.24 825.27 372.63 831.00 365.00
C 831.24 368.56 834.09 371.33 834.00 375.00
C 840.25 366.43 848.58 358.43 854.00 349.00
C 856.05 343.55 852.96 337.56 852.00 332.00
C 851.05 326.50 849.01 321.42 848.00 316.00
C 846.71 315.83 846.25 314.30 845.00 314.00
C 838.54 329.47 838.72 346.99 831.00 362.00
C 822.94 349.12 815.24 334.85 807.77 321.23 C 800.31 307.61 793.35 293.61 785.77 280.23 C 778.19 266.85 771.60 252.33 763.75 239.25 C 755.91 226.16 750.10 210.89 741.30 198.70 C 732.51 186.50 729.68 168.23 719.00 158.00
C 726.91 177.60 729.92 201.48 738.02 220.98 C 746.12 240.47 749.93 263.41 759.01 281.99 C 768.09 300.58 775.39 319.79 786.08 336.92 C 796.76 354.06 801.45 374.25 813.00 389.00 Z"/>
</g>
<g fill="#B5DDEA" fill-opacity="1.00" stroke="None">
<path d="
M 762.00 208.00 
C 759.60 201.32 752.73 197.07 748.00 192.00
C 751.20 197.26 756.93 204.46 762.00 208.00 Z"/>
</g>
<g fill="#B2DBE9" fill-opacity="1.00" stroke="None">
<path d="
M 848.00 315.00 
C 840.18 302.38 829.47 290.56 819.77 279.23 C 810.07 267.90 801.67 254.03 791.75 243.25 C 781.83 232.46 773.98 217.38 762.00 209.00
C 771.00 220.84 780.90 233.10 790.74 244.26 C 800.58 255.41 808.11 269.85 818.75 280.25 C 829.39 290.65 835.97 306.59 848.00 315.00 Z"/>
</g>
<g fill="#E0282D" fill-opacity="1.00" stroke="None">
<path d="
M 827.00 394.00 
C 838.09 392.19 854.01 386.11 864.00 381.00
C 875.63 375.05 879.38 357.03 887.78 346.78 C 896.18 336.52 902.43 322.22 909.92 310.92 C 917.41 299.61 925.36 287.19 932.25 275.25 C 939.15 263.32 948.09 250.33 956.00 240.00
C 957.36 237.45 958.48 234.80 959.00 232.00
C 912.29 283.59 872.80 341.60 827.00 394.00 Z"/>
</g>
<g fill="#E74D24" fill-opacity="1.00" stroke="None">
<path d="
M 864.00 381.00 
C 865.01 380.82 865.76 379.52 867.00 380.00
C 858.78 394.12 850.31 407.95 842.00 422.00
C 840.95 423.70 839.66 425.10 839.00 427.00
C 846.69 425.92 852.57 419.99 860.00 418.00
C 884.45 407.45 908.03 393.93 932.70 383.70 C 957.36 373.46 980.59 358.10 1006.00 350.00
C 1005.74 349.88 1005.34 349.01 1005.00 349.00
C 987.32 348.54 968.35 359.24 951.00 362.00
C 947.60 362.92 943.89 364.44 940.00 365.00
C 926.77 369.22 913.17 367.50 900.00 364.00
C 917.92 322.38 938.21 281.70 956.00 240.00
C 948.09 250.33 939.15 263.32 932.25 275.25 C 925.36 287.19 917.41 299.61 909.92 310.92 C 902.43 322.22 896.18 336.52 887.78 346.78 C 879.38 357.03 875.63 375.05 864.00 381.00 Z"/>
</g>
<g fill="#8CACC3" fill-opacity="1.00" stroke="None">
<path d="
M 854.00 349.00 
C 857.33 343.21 853.75 338.02 852.00 332.00
C 852.96 337.56 856.05 343.55 854.00 349.00 Z"/>
</g>
<g fill="#CDEAD4" fill-opacity="1.00" stroke="None">
<path d="
M 773.00 363.00 
C 771.48 357.94 768.87 353.23 768.00 348.00
C 771.80 350.38 774.24 354.68 778.00 357.00
C 774.24 353.55 772.11 347.50 767.00 346.00
C 765.33 352.73 771.16 358.79 773.00 363.00 Z"/>
</g>
<g fill="#DBA471" fill-opacity="1.00" stroke="None">
<path d="
M 1005.00 349.00 
C 1005.34 349.01 1005.74 349.88 1006.00 350.00
C 1007.06 349.66 1007.93 349.47 1009.00 349.00
C 1010.42 349.21 1011.56 348.29 1012.00 347.00
C 1009.29 346.07 1006.96 348.43 1005.00 349.00 Z"/>
</g>
<g fill="#2EA44B" fill-opacity="1.00" stroke="None">
<path d="
M 773.00 363.00 
C 775.51 371.37 777.98 379.81 781.00 388.00
C 782.66 392.50 784.74 397.07 786.00 402.00
C 786.63 404.48 787.77 410.63 790.00 412.00
C 789.21 409.43 795.91 404.79 797.00 403.00
C 796.86 402.55 797.20 401.40 797.00 401.00
C 789.15 384.99 778.45 369.66 772.00 353.00
C 774.41 354.11 775.62 356.96 778.00 358.00
C 778.00 358.00 778.20 357.40 778.00 357.00
C 774.24 354.68 771.80 350.38 768.00 348.00
C 768.87 353.23 771.48 357.94 773.00 363.00 Z"/>
</g>
<g fill="#F6AE16" fill-opacity="1.00" stroke="None">
<path d="
M 1006.00 350.00 
C 980.59 358.10 957.36 373.46 932.70 383.70 C 908.03 393.93 884.45 407.45 860.00 418.00
C 852.08 424.70 848.20 446.69 835.00 441.00
C 834.46 435.20 836.27 426.58 842.00 422.00
C 850.31 407.95 858.78 394.12 867.00 380.00
C 865.76 379.52 865.01 380.82 864.00 381.00
C 854.01 386.11 838.09 392.19 827.00 394.00
C 827.00 394.00 826.43 393.83 826.00 394.00
C 817.28 407.38 797.92 412.68 786.30 423.30 C 774.69 433.93 758.47 442.23 746.30 452.30 C 734.14 462.37 717.49 470.64 705.92 480.92 C 694.35 491.20 673.68 497.86 667.00 510.00
C 717.37 485.00 768.94 460.59 820.00 437.00
C 811.69 452.35 799.63 465.62 791.00 481.00
C 804.73 478.37 817.37 471.94 831.00 469.00
C 831.49 468.94 832.58 469.18 833.00 469.00
C 849.44 452.40 873.86 443.69 892.25 429.25 C 910.63 414.80 932.90 403.73 951.30 389.30 C 969.70 374.88 992.17 365.21 1009.00 349.00
C 1007.93 349.47 1007.06 349.66 1006.00 350.00 Z"/>
</g>
<g fill="#1D773A" fill-opacity="1.00" stroke="None">
<path d="
M 797.00 401.00 
C 799.17 397.45 803.76 394.74 806.00 391.00
C 801.63 385.52 796.56 379.26 792.25 373.75 C 787.93 368.24 781.04 364.21 778.00 358.00
C 775.62 356.96 774.41 354.11 772.00 353.00
C 778.45 369.66 789.15 384.99 797.00 401.00 Z"/>
</g>
<g fill="#E39E86" fill-opacity="1.00" stroke="None">
<path d="
M 940.00 365.00 
C 943.89 364.44 947.60 362.92 951.00 362.00
C 946.96 362.64 943.44 364.07 940.00 365.00 Z"/>
</g>
<g fill="#0C2C52" fill-opacity="1.00" stroke="None">
<path d="
M 813.00 389.00 
C 813.47 390.93 816.45 391.69 816.00 394.00
C 824.54 390.93 829.09 381.73 834.00 375.00
C 834.09 371.33 831.24 368.56 831.00 365.00
C 825.27 372.63 820.12 381.24 811.00 386.00
C 811.39 387.17 812.41 387.90 813.00 389.00 Z"/>
</g>
<g fill="#D7ECD9" fill-opacity="1.00" stroke="None">
<path d="
M 785.00 401.00 
C 783.65 396.68 781.63 392.56 781.00 388.00
C 781.55 392.29 781.41 396.70 785.00 401.00 Z"/>
</g>
<g fill="#81C78F" fill-opacity="1.00" stroke="None">
<path d="
M 785.00 401.00 
C 785.11 401.35 785.94 401.76 786.00 402.00
C 784.74 397.07 782.66 392.50 781.00 388.00
C 781.63 392.56 783.65 396.68 785.00 401.00 Z"/>
</g>
<g fill="#134523" fill-opacity="1.00" stroke="None">
<path d="
M 797.00 401.00 
C 797.20 401.40 796.86 402.55 797.00 403.00
C 797.25 403.80 799.01 404.80 799.00 406.00
C 803.35 404.27 806.67 400.16 811.00 398.00
C 810.03 395.28 807.69 393.12 806.00 391.00
C 803.76 394.74 799.17 397.45 797.00 401.00 Z"/>
</g>
<g fill="#F7E9BB" fill-opacity="1.00" stroke="None">
<path d="
M 665.00 508.00 
C 665.00 509.00 665.00 510.00 665.00 511.00
C 664.68 511.53 667.43 509.83 667.00 510.00
C 673.68 497.86 694.35 491.20 705.92 480.92 C 717.49 470.64 734.14 462.37 746.30 452.30 C 758.47 442.23 774.69 433.93 786.30 423.30 C 797.92 412.68 817.28 407.38 826.00 394.00
C 818.33 397.00 812.12 403.83 805.25 408.25 C 798.37 412.66 792.03 417.77 785.25 422.25 C 778.46 426.72 771.52 432.20 765.08 437.08 C 758.64 441.96 751.44 446.46 745.03 451.03 C 738.63 455.60 731.39 459.98 724.75 464.75 C 718.10 469.51 711.03 474.95 704.70 479.70 C 698.36 484.44 689.01 487.39 684.25 493.25 C 679.49 499.11 667.83 501.62 665.00 508.00 Z"/>
</g>
<g fill="#1F6835" fill-opacity="1.00" stroke="None">
<path d="
M 790.00 412.00 
C 792.44 413.50 796.73 407.60 799.00 406.00
C 799.01 404.80 797.25 403.80 797.00 403.00
C 795.91 404.79 789.21 409.43 790.00 412.00 Z"/>
</g>
<g fill="#F19013" fill-opacity="1.00" stroke="None">
<path d="
M 842.00 422.00 
C 836.27 426.58 834.46 435.20 835.00 441.00
C 848.20 446.69 852.08 424.70 860.00 418.00
C 852.57 419.99 846.69 425.92 839.00 427.00
C 839.66 425.10 840.95 423.70 842.00 422.00 Z"/>
</g>
<g fill="#E94E26" fill-opacity="1.00" stroke="None">
<path d="
M 667.00 510.00 
C 675.73 506.57 686.05 506.88 695.00 504.00 C 703.94 501.12 713.73 501.56 722.32 497.32 C 730.91 493.08 737.94 502.91 746.00 504.00
C 746.86 504.12 751.16 503.93 751.00 504.00
C 757.92 491.98 778.60 487.11 790.00 482.00
C 757.74 530.39 724.37 578.81 691.00 626.00
C 690.50 628.87 697.19 621.17 699.75 617.75 C 702.32 614.33 707.79 609.21 711.00 606.00
C 747.97 562.73 787.05 521.24 824.00 478.00
C 826.29 475.32 828.65 471.22 831.00 469.00
C 817.37 471.94 804.73 478.37 791.00 481.00
C 799.63 465.62 811.69 452.35 820.00 437.00
C 768.94 460.59 717.37 485.00 667.00 510.00 Z"/>
</g>
<g fill="#2591C8" fill-opacity="1.00" stroke="None">
<path d="
M 885.00 442.00 
C 889.83 444.25 875.84 452.89 879.78 457.22 C 883.72 461.56 884.54 468.96 888.31 473.70 C 892.07 478.43 894.14 484.87 896.93 490.07 C 899.71 495.27 903.67 500.32 906.75 505.25 C 909.83 510.17 912.04 517.07 914.00 521.00
C 914.62 521.66 917.14 525.97 918.00 524.00
C 912.97 512.93 908.24 500.78 904.00 489.00
C 900.28 478.67 895.83 468.61 893.00 458.00
C 891.86 455.19 890.01 452.14 889.00 449.00
C 888.10 446.20 887.85 441.67 885.00 442.00 Z"/>
</g>
<g fill="#155790" fill-opacity="1.00" stroke="None">
<path d="
M 874.00 449.00 
C 874.73 450.34 875.34 451.64 876.00 453.00
C 871.24 456.97 866.72 461.07 862.00 465.00
C 862.81 467.04 865.27 467.97 866.00 470.00
C 881.06 487.63 898.40 504.28 914.00 521.00
C 912.04 517.07 909.83 510.17 906.75 505.25 C 903.67 500.32 899.71 495.27 896.93 490.07 C 894.14 484.87 892.07 478.43 888.31 473.70 C 884.54 468.96 883.72 461.56 879.78 457.22 C 875.84 452.89 889.83 444.25 885.00 442.00
C 881.45 442.41 876.75 447.09 874.00 449.00 Z"/>
</g>
<g fill="#153357" fill-opacity="1.00" stroke="None">
<path d="
M 866.00 470.00 
C 865.27 467.97 862.81 467.04 862.00 465.00
C 866.72 461.07 871.24 456.97 876.00 453.00
C 875.34 451.64 874.73 450.34 874.00 449.00
C 867.86 452.47 862.10 456.41 856.00 460.00
C 858.48 463.93 862.75 466.75 866.00 470.00 Z"/>
</g>
<g fill="#AEDBEA" fill-opacity="1.00" stroke="None">
<path d="
M 893.00 458.00 
C 891.99 454.20 890.56 452.15 889.00 449.00
C 890.01 452.14 891.86 455.19 893.00 458.00 Z"/>
</g>
<g fill="#0E3C1F" fill-opacity="1.00" stroke="None">
<path d="
M 836.00 474.00 
C 835.58 476.87 839.29 479.09 839.00 482.00
C 844.56 477.96 851.15 474.44 857.00 471.00
C 853.94 467.94 851.16 462.29 846.75 465.75 C 842.34 469.21 839.36 470.57 836.00 474.00 Z"/>
</g>
<g fill="#F7D7C5" fill-opacity="1.00" stroke="None">
<path d="
M 824.00 478.00 
C 826.88 475.12 830.09 471.94 833.00 469.00
C 832.58 469.18 831.49 468.94 831.00 469.00
C 828.65 471.22 826.29 475.32 824.00 478.00 Z"/>
</g>
<g fill="#1A7A37" fill-opacity="1.00" stroke="None">
<path d="
M 836.00 474.00 
C 829.43 480.70 825.37 484.84 819.25 492.25 C 813.12 499.66 816.90 509.81 819.00 519.00
C 819.85 522.71 820.66 526.08 823.00 529.00
C 830.34 515.53 829.31 497.00 839.00 484.00
C 867.48 543.42 893.04 604.98 919.00 666.00
C 920.30 666.26 919.49 659.59 919.00 657.00
C 908.03 626.15 908.59 585.11 896.98 555.02 C 885.36 524.93 880.19 494.18 857.00 471.00
C 851.15 474.44 844.56 477.96 839.00 482.00
C 839.29 479.09 835.58 476.87 836.00 474.00 Z"/>
</g>
<g fill="#E3252A" fill-opacity="1.00" stroke="None">
<path d="
M 751.00 504.00 
C 743.19 517.57 737.20 532.92 730.00 547.00
C 719.48 567.58 708.15 587.81 699.00 609.00
C 696.62 614.52 692.04 620.08 691.00 626.00
C 724.37 578.81 757.74 530.39 790.00 482.00
C 778.60 487.11 757.92 491.98 751.00 504.00 Z"/>
</g>
<g fill="#29A946" fill-opacity="1.00" stroke="None">
<path d="
M 823.00 529.00 
C 823.24 529.30 823.00 530.00 823.00 530.00
C 836.97 552.45 854.08 573.43 868.74 595.26 C 883.41 617.08 898.34 638.73 914.00 660.00
C 914.99 661.34 917.22 665.64 919.00 666.00
C 893.04 604.98 867.48 543.42 839.00 484.00
C 829.31 497.00 830.34 515.53 823.00 529.00 Z"/>
</g>
<g fill="#AED7E6" fill-opacity="1.00" stroke="None">
<path d="
M 918.00 524.00 
C 920.12 519.14 912.45 510.29 911.77 505.23 C 911.09 500.17 906.28 493.32 904.00 489.00
C 908.24 500.78 912.97 512.93 918.00 524.00 Z"/>
</g>
<g fill="#F2C7C4" fill-opacity="1.00" stroke="None">
<path d="
M 746.00 504.00 
C 746.27 505.47 748.00 504.89 749.00 505.00
C 743.35 519.08 734.69 533.56 730.00 547.00
C 737.20 532.92 743.19 517.57 751.00 504.00
C 751.16 503.93 746.86 504.12 746.00 504.00 Z"/>
</g>
<g fill="#CEEAD7" fill-opacity="1.00" stroke="None">
<path d="
M 823.00 530.00 
C 823.00 530.00 823.24 529.30 823.00 529.00
C 820.66 526.08 819.85 522.71 819.00 519.00
C 819.30 523.68 819.82 525.55 823.00 530.00 Z"/>
</g>
<g fill="#EEBFB7" fill-opacity="1.00" stroke="None">
<path d="
M 691.00 626.00 
C 692.04 620.08 696.62 614.52 699.00 609.00
C 692.89 613.05 691.20 623.03 689.00 630.00
C 697.50 623.08 703.98 614.22 711.00 606.00
C 707.79 609.21 702.32 614.33 699.75 617.75 C 697.19 621.17 690.50 628.87 691.00 626.00 Z"/>
</g>
<g fill="#CBE6D0" fill-opacity="1.00" stroke="None">
<path d="
M 919.00 666.00 
C 917.22 665.64 914.99 661.34 914.00 660.00
C 913.25 663.05 917.94 667.69 921.00 669.00
C 921.83 664.63 920.25 660.50 919.00 657.00
C 919.49 659.59 920.30 666.26 919.00 666.00 Z"/>
</g>
</svg>